<?xml version="1.0" encoding="utf-8"?>
<!-- Generator: Adobe Illustrator 15.0.2, SVG Export Plug-In . SVG Version: 6.00 Build 0)  -->
<!DOCTYPE svg PUBLIC "-//W3C//DTD SVG 1.1//EN" "http://www.w3.org/Graphics/SVG/1.1/DTD/svg11.dtd">
<svg version="1.1" xmlns="http://www.w3.org/2000/svg" xmlns:xlink="http://www.w3.org/1999/xlink" x="0px" y="0px" width="1000px"
	 height="1000px" viewBox="0 0 1000 1000" style="enable-background:new 0 0 1000 1000;" xml:space="preserve">
<filter  id="AI_GaußscherWeichzeichner_7">
	<feGaussianBlur  stdDeviation="7"></feGaussianBlur>
</filter>
<filter  id="AI_GaußscherWeichzeichner_4">
	<feGaussianBlur  stdDeviation="4"></feGaussianBlur>
</filter>
<filter  id="AI_GaußscherWeichzeichner_15">
	<feGaussianBlur  stdDeviation="15"></feGaussianBlur>
</filter>
<g id="Down">
	<g id="Edge_2_" style="display:none;">
		<path style="display:inline;fill:#E6E6E6;" d="M1782.201,85 M1799.385,44h-16.982h-344.804h-16.542l-11.91,11.479
			l-248.599,239.598L1148,307.171v17.427v344.804v16.982l12.009,12.009l248.599,248.598L1420.616,959h16.982h344.804h17.428
			l12.093-12.548l239.598-248.598l11.479-11.91v-16.542V324.598v-16.983l-12.009-12.008L1811.394,56.009L1799.385,44L1799.385,44z"
			/>
	</g>
	<g id="Shadow_2_" style="display:none;filter:url(#AI_GaußscherWeichzeichner_15);">
		<path style="display:inline;" d="M1782.201,83.172 M1799.385,41.5h-16.982h-344.804h-16.542l-11.91,11.667l-248.599,243.526
			L1148,308.985v17.713v350.458v17.26l12.009,12.206l248.599,252.674l12.009,12.205h16.982h344.804h17.428l12.093-12.753
			l239.598-252.674L2063,693.968v-16.813V326.698v-17.261l-12.009-12.205L1811.394,53.706L1799.385,41.5L1799.385,41.5z"/>
	</g>
	<g id="Red_fill_1_">
		<polygon style="fill:#FF0000;" points="1431.386,940 1174,682.615 1174,325.222 1431.547,77 1788.615,77 2037,325.385 
			2037,682.454 1788.778,940 		"/>
		<path style="fill:#CCCCCC;" d="M1782.201,92L2022,331.598v344.804L1782.402,925h-344.804L1189,676.402V331.598L1437.599,92H1782
			 M1794.828,62h-12.426h-344.804h-12.104l-8.715,8.399l-248.599,239.598l-9.182,8.849v12.751v344.804v12.427l8.787,8.786
			l248.599,248.598l8.786,8.787h12.427h344.804h12.752l8.849-9.182l239.598-248.598l8.399-8.715v-12.104V331.598v-12.426
			l-8.787-8.787L1803.615,70.787L1794.828,62L1794.828,62z"/>
	</g>
	<g id="White_border_13_">
		<path style="fill:#FFFFFF;" d="M1782.201,85L2022,324.598v344.804L1782.402,918h-344.804L1189,669.402V324.598L1437.599,85H1782
			 M1799.385,44h-16.982h-344.804h-16.542l-11.91,11.479l-248.599,239.598L1148,307.171v17.427v344.804v16.982l12.009,12.009
			l248.599,248.598L1420.615,959h16.983h344.804h17.428l12.093-12.548l239.598-248.598l11.479-11.91v-16.542V324.598v-16.983
			l-12.009-12.008L1811.394,56.009L1799.385,44L1799.385,44z"/>
	</g>
	<g id="Shadow_white_border_2_">
		<defs>
			<polygon id="White_border_11_" points="1437.599,918 1189,669.402 1189,324.598 1437.599,85 1782.402,85 2022,324.598 
				2022,669.402 1782.402,918 			"/>
		</defs>
		<clipPath id="White_border_1_">
			<use xlink:href="#White_border_11_"  style="overflow:visible;"/>
		</clipPath>
		<g id="White_border_12_" style="clip-path:url(#White_border_1_);">
			<g style="opacity:0.31;">
			</g>
		</g>
	</g>
	<g id="_x21__7_">
		<path id="_x21__6_" style="fill:#FFFFFF;" d="M1711.957,145.842l-28.996,535.539h-137.069l-28.995-535.539H1711.957z
			 M1697.459,714.77v142.342h-166.064V714.77H1697.459z"/>
		<g id="Shadow__x21__1_">
			<defs>
				<path id="_x21__4_" d="M1711.957,145.842l-28.996,535.539h-137.069l-28.995-535.539H1711.957z M1697.459,714.77v142.342
					h-166.064V714.77H1697.459z"/>
			</defs>
			<clipPath id="_x21__8_">
				<use xlink:href="#_x21__4_"  style="overflow:visible;"/>
			</clipPath>
			<g id="_x21__5_" style="opacity:0.62;clip-path:url(#_x21__8_);filter:url(#AI_GaußscherWeichzeichner_4);">
				<path d="M1711.957,147.842l-28.996,535.539h-137.069l-28.995-535.539H1711.957 M1697.459,716.77v142.342h-166.064V716.77
					H1697.459 M1717.235,142.842h-5.278h-195.061h-5.278l0.286,5.271l28.994,535.539l0.257,4.729h4.736h137.069h4.736l0.256-4.729
					l28.996-535.539L1717.235,142.842L1717.235,142.842z M1702.459,711.77h-5h-166.064h-5v5v142.342v5h5h166.064h5v-5V716.77V711.77
					L1702.459,711.77z"/>
			</g>
		</g>
	</g>
	<g id="Shadow_white_border">
		<defs>
			<path id="White_border_5_" d="M1799.385,44h-16.982h-344.804h-16.542l-11.91,11.479l-248.599,239.598L1148,307.171v17.427
				v344.804v16.982l12.009,12.009l248.599,248.598L1420.615,959h16.983h344.804h17.428l12.093-12.548l239.598-248.598l11.479-11.91
				v-16.542V324.598v-16.983l-12.009-12.008L1811.394,56.009L1799.385,44L1799.385,44z"/>
		</defs>
		<clipPath id="White_border_2_">
			<use xlink:href="#White_border_5_"  style="overflow:visible;"/>
		</clipPath>
		<g id="White_border_10_" style="opacity:0.49;clip-path:url(#White_border_2_);filter:url(#AI_GaußscherWeichzeichner_7);">
			<path d="M1799.385,49l11.509,11.009l239.098,238.598L2061,310.615v16.983v344.804v16.542l-10.479,12.41l-238.598,249.098
				L1799.83,964h-17.428h-344.804h-16.983l-12.508-13.009l-249.099-249.598L1146,689.385v-16.982V327.598v-17.427l13.548-11.594
				l249.599-239.098L1421.057,49h16.542h344.804H1799.385 M1801.793,43h-2.408h-16.982h-344.804h-16.542h-2.264l-1.699,1.496
				l-11.91,10.479l-0.096,0.083l-0.092,0.088L1155.52,294.127l-13.421,11.485l-2.099,1.796v2.763v17.427v344.804v16.982v2.627
				l1.93,1.782l12.919,11.925l248.972,249.471l12.47,12.969l1.771,1.842h2.555h16.983h344.804h17.428h2.688l1.789-2.005
				l12.022-13.47l238.524-249.021l0.13-0.136l0.121-0.144l10.479-12.41l1.416-1.677v-2.194v-16.542V327.598v-16.983v-2.334
				l-1.577-1.721l-11.009-12.008l-0.09-0.098l-0.095-0.094L1815.132,55.762l-0.045-0.045l-0.046-0.044l-11.509-11.009L1801.793,43
				L1801.793,43z"/>
		</g>
	</g>
</g>
<g id="Up">
	<g id="Edge_3_">
		<path style="fill:#E6E6E6;" d="M672.201,85 M689.385,44h-16.982H327.599h-16.542l-11.91,11.479L50.548,295.077L38,307.171v17.427
			v344.804v16.982l12.009,12.009l248.599,248.598L310.616,959h16.982h344.804h17.428l12.093-12.548l239.598-248.598L953,685.944
			v-16.542V324.598v-16.983l-12.009-12.008L701.394,56.009L689.385,44L689.385,44z"/>
	</g>
	<g id="Shadow_3_" style="opacity:0.41;filter:url(#AI_GaußscherWeichzeichner_15);">
		<path d="M672.201,83.172 M689.385,41.5h-16.982H327.599h-16.542l-11.91,11.667L50.548,296.693L38,308.985v17.713v350.458v17.26
			l12.009,12.206l248.599,252.674l12.009,12.205h16.982h344.804h17.428l12.093-12.753l239.598-252.674L953,693.968v-16.813V326.698
			v-17.261l-12.009-12.205L701.394,53.706L689.385,41.5L689.385,41.5z"/>
	</g>
	<g id="Red_fill_3_">
		<polygon style="fill:#FF0000;" points="321.386,922 64,664.615 64,307.222 321.547,59 678.615,59 927,307.385 927,664.454 
			678.778,922 		"/>
		<path style="fill:#CCCCCC;" d="M672.201,74L912,313.598v344.804L672.402,907H327.599L79,658.402V313.598L327.599,74H672
			 M684.829,44h-12.427H327.599h-12.104l-8.715,8.399L58.182,291.998L49,300.847v12.751v344.804v12.427l8.787,8.786l248.599,248.598
			l8.786,8.787h12.427h344.804h12.752l8.849-9.182l239.598-248.598l8.399-8.715v-12.104V313.598v-12.426l-8.787-8.787
			L693.615,52.787L684.829,44L684.829,44z"/>
	</g>
	<g id="White_border_9_">
		<path style="fill:#FFFFFF;" d="M672.201,67L912,306.598v344.804L672.402,900H327.599L79,651.402V306.598L327.599,67H672
			 M689.385,26h-16.982H327.599h-16.542l-11.91,11.479L50.548,277.077L38,289.171v17.427v344.804v16.982l12.009,12.009
			l248.599,248.598L310.616,941h16.982h344.804h17.428l12.093-12.548l239.598-248.598L953,667.944v-16.542V306.598v-16.983
			l-12.009-12.008L701.394,38.009L689.385,26L689.385,26z"/>
	</g>
	<g id="Shadow_white_border_3_">
		<defs>
			<polygon id="White_border_7_" points="327.599,900 79,651.402 79,306.598 327.599,67 672.402,67 912,306.598 912,651.402 
				672.402,900 			"/>
		</defs>
		<clipPath id="White_border_3_">
			<use xlink:href="#White_border_7_"  style="overflow:visible;"/>
		</clipPath>
		<g id="White_border_8_" style="opacity:0.31;clip-path:url(#White_border_3_);filter:url(#AI_GaußscherWeichzeichner_7);">
			<path d="M672.402,71L912,310.598v344.804L672.402,904H327.599L79,655.402V310.598L327.599,71H672.402 M678.615,56h-6.213H327.599
				h-6.052l-4.357,4.2L68.591,299.798L64,304.222v6.376v344.804v6.213l4.394,4.394l248.599,248.598l4.394,4.394h6.213h344.804h6.376
				l4.424-4.591l239.599-248.598l4.199-4.357v-6.052V310.598v-6.213l-4.394-4.393L683.009,60.394L678.615,56L678.615,56z"/>
		</g>
	</g>
	<g id="_x21_">
		<path id="_x21__3_" style="fill:#FFFFFF;" d="M601.957,127.842l-28.996,535.539H435.892l-28.995-535.539H601.957z M587.459,696.77
			v142.342H421.395V696.77H587.459z"/>
		<g id="Shadow__x21__2_">
			<defs>
				<path id="_x21__1_" d="M601.957,127.842l-28.996,535.539H435.892l-28.995-535.539H601.957z M587.459,696.77v142.342H421.395
					V696.77H587.459z"/>
			</defs>
			<clipPath id="_x21__9_">
				<use xlink:href="#_x21__1_"  style="overflow:visible;"/>
			</clipPath>
			<g id="_x21__2_" style="opacity:0.62;clip-path:url(#_x21__9_);filter:url(#AI_GaußscherWeichzeichner_4);">
				<path d="M601.957,129.842l-28.996,535.539H435.892l-28.995-535.539H601.957 M587.459,698.77v142.342H421.395V698.77H587.459
					 M607.235,124.842h-5.278H406.896h-5.278l0.286,5.271l28.994,535.539l0.257,4.729h4.736h137.069h4.736l0.256-4.729
					l28.996-535.539L607.235,124.842L607.235,124.842z M592.459,693.77h-5H421.395h-5v5v142.342v5h5h166.064h5v-5V698.77V693.77
					L592.459,693.77z"/>
			</g>
		</g>
	</g>
</g>
</svg>
